<svg xmlns="http://www.w3.org/2000/svg" xmlns:xlink="http://www.w3.org/1999/xlink" xmlns:svgjs="http://svgjs.com/svgjs" version="1.1" width="30" x="0" y="0" viewBox="0 0 128 128" ><g><path xmlns="http://www.w3.org/2000/svg" d="m90.285 30.154a22.156 22.156 0 1 0 -22.156 22.156 22.182 22.182 0 0 0 22.156-22.156zm-34.178 14.246a7.026 7.026 0 0 1 7.009-6.726h10.027a7.026 7.026 0 0 1 7.008 6.726 18.582 18.582 0 0 1 -24.044 0zm-6.633-14.246a18.656 18.656 0 1 1 33.606 11.11 10.533 10.533 0 0 0 -9.937-7.093h-10.027a10.533 10.533 0 0 0 -9.938 7.093 18.529 18.529 0 0 1 -3.704-11.11zm18.655 1.046a6.927 6.927 0 0 0 6.92-6.92v-2.035a6.92 6.92 0 1 0 -13.84 0v2.037a6.928 6.928 0 0 0 6.92 6.918zm-3.42-8.957a3.42 3.42 0 1 1 6.84 0v2.037a3.42 3.42 0 1 1 -6.84 0zm-41.201 86.257h-9.758a5.75 5.75 0 1 0 0 11.5h9.758a5.75 5.75 0 0 0 0-11.5zm0 8h-9.758a2.25 2.25 0 0 1 0-4.5h9.758a2.25 2.25 0 1 1 0 4.5zm5.75-19.938a1.75 1.75 0 0 1 -3.5 0 2.253 2.253 0 0 0 -2.25-2.25h-9.758a2.25 2.25 0 0 0 0 4.5h4.879a1.75 1.75 0 1 1 0 3.5h-4.879a5.75 5.75 0 0 1 0-11.5h9.758a5.757 5.757 0 0 1 5.75 5.748zm-5.75-23.439h-9.758a5.75 5.75 0 0 0 0 11.5h9.758a5.75 5.75 0 1 0 0-11.5zm0 8h-9.758a2.25 2.25 0 1 1 0-4.5h9.758a2.25 2.25 0 0 1 0 4.5zm20-23.619h49.242a1.75 1.75 0 0 1 0 3.5h-49.242a1.75 1.75 0 0 1 0-3.5zm-14.25-47.756a1.75 1.75 0 0 1 -1.75 1.75h-17.758a1.75 1.75 0 1 1 0-3.5h17.758a1.75 1.75 0 0 1 1.75 1.75zm0 8.442a1.751 1.751 0 0 1 -1.75 1.75h-17.758a1.75 1.75 0 0 1 0-3.5h17.758a1.75 1.75 0 0 1 1.75 1.75zm0 8.439a1.75 1.75 0 0 1 -1.75 1.75h-17.758a1.75 1.75 0 0 1 0-3.5h17.758a1.75 1.75 0 0 1 1.75 1.75zm0 8.441a1.75 1.75 0 0 1 -1.75 1.75h-17.758a1.75 1.75 0 0 1 0-3.5h17.758a1.75 1.75 0 0 1 1.75 1.75zm73.242 28.03v-8.975a1.75 1.75 0 0 0 -3.5 0v8.363a33.045 33.045 0 0 0 -3.875-.236 32.666 32.666 0 0 0 -16.572 4.5h-35.045a1.75 1.75 0 1 0 0 3.5h30.159a33.168 33.168 0 0 0 -5.256 5.748h-24.9a1.75 1.75 0 1 0 0 3.5h22.7a32.7 32.7 0 0 0 -2.439 5.75h-7.7a1.75 1.75 0 0 0 0 3.5h6.806a32.762 32.762 0 0 0 1.75 18.623h-6.94a1.75 1.75 0 1 0 0 3.5h8.588a32.99 32.99 0 0 0 3.9 5.623h-5.832a1.75 1.75 0 1 0 0 3.5h8.956a1.749 1.749 0 0 0 .326-.033 32.948 32.948 0 0 0 6.759 4.533h-43.127v-120.996h61.742v24a1.75 1.75 0 0 0 3.5 0v-25.752a1.75 1.75 0 0 0 -1.75-1.748h-99a1.75 1.75 0 0 0 -1.75 1.748v124.5a1.75 1.75 0 0 0 1.75 1.752h93.221.154a32.872 32.872 0 0 0 7.375-64.9zm-99-59.6h30.258v121h-30.258zm91.625 121c-.034 0-.068 0-.1 0h-.051a28.714 28.714 0 1 1 .154 0zm17.331-41.2a1.749 1.749 0 0 1 0 2.475l-21.187 21.183a1.749 1.749 0 0 1 -2.475 0l-11-11a1.75 1.75 0 1 1 2.475-2.475l9.762 9.763 19.95-19.95a1.749 1.749 0 0 1 2.475.004zm-9.956-45.394v5.813a1.75 1.75 0 0 1 -3.5 0v-5.813a1.75 1.75 0 0 1 3.5 0z" fill="url(#a)" data-original="url(#a)" style=""/></g></svg>
