<svg xmlns="http://www.w3.org/2000/svg" xmlns:xlink="http://www.w3.org/1999/xlink" xmlns:svgjs="http://svgjs.com/svgjs" width="30px" height="30px" x="0" y="0" viewBox="0 0 512 512"><g><g xmlns="http://www.w3.org/2000/svg"><path d="m446 502v-403.006c22.795-4.646 40-24.847 40-48.994 0-27.57-22.43-50-50-50h-320.001c-29.027 0-49.999 24.724-49.999 52.2v343.8c0 16.542-13.458 30-30 30-5.523 0-10 4.478-10 10s4.477 10 10 10h70v56c0 5.522 4.477 10 10 10h320c5.523 0 10-4.478 10-10zm-290.027-482h280.027c16.542 0 30 13.458 30 30s-13.458 30-30 30h-280.029c6.293-8.363 10.029-18.753 10.029-30s-3.735-21.637-10.027-30zm270.027 472h-300c0-19.676 0-371.429 0-392h300z" fill="#8ac4d0" data-original="#000000" style="" class=""/><path d="m176 306h200c5.523 0 10-4.478 10-10s-4.477-10-10-10h-200c-5.523 0-10 4.478-10 10s4.477 10 10 10z" fill="#8ac4d0" data-original="#000000" style="" class=""/><path d="m176 366h200c5.523 0 10-4.478 10-10s-4.477-10-10-10h-200c-5.523 0-10 4.478-10 10s4.477 10 10 10z" fill="#8ac4d0" data-original="#000000" style="" class=""/><path d="m176 186h200c5.523 0 10-4.478 10-10s-4.477-10-10-10h-200c-5.523 0-10 4.478-10 10s4.477 10 10 10z" fill="#8ac4d0" data-original="#000000" style="" class=""/><path d="m176 246h200c5.523 0 10-4.478 10-10s-4.477-10-10-10h-200c-5.523 0-10 4.478-10 10s4.477 10 10 10z" fill="#8ac4d0" data-original="#000000" style="" class=""/><path d="m176 426h200c5.523 0 10-4.478 10-10s-4.477-10-10-10h-200c-5.523 0-10 4.478-10 10s4.477 10 10 10z" fill="#8ac4d0" data-original="#000000" style="" class=""/></g></g></svg>
