<svg xmlns="http://www.w3.org/2000/svg" xmlns:xlink="http://www.w3.org/1999/xlink" x="0px" y="0px" viewBox="0 0 460.8 460.8" xml:space="preserve" width="20px">
	<g>
		<g>
			<path d="M358.4,153.6h-76.8V76.8L204.8,0H25.6v307.2h153.6v153.6h256V230.4L358.4,153.6z M358.4,207.908l22.492,22.492H358.4
				V207.908z M204.8,54.308L227.292,76.8H204.8V54.308z M179.2,268.8H64V38.4h115.2v64h64v51.2h-64V268.8z M396.8,422.4H217.6V192
				h115.2v64h64V422.4z"/>
		</g>
	</g>
	<g>
		<g>
			<rect x="102.4" y="204.8" width="38.4" height="38.4"/>
		</g>
	</g>
	<g>
		<g>
			<rect x="102.4" y="64" width="38.4" height="115.2"/>
		</g>
	</g>
	<g>
		<g>
			<path d="M358.4,38.4V0l-51.2,51.2l51.2,51.2V64c28.232,0,51.2,22.968,51.2,51.2v25.6h25.6v-25.6
				C435.2,72.852,400.747,38.4,358.4,38.4z"/>
		</g>
	</g>
</svg>
