<svg xmlns="http://www.w3.org/2000/svg" xmlns:xlink="http://www.w3.org/1999/xlink" xmlns:svgjs="http://svgjs.com/svgjs" width="30px" height="30px" x="0" y="0" viewBox="0 0 510 510">
	<g>
		<g xmlns="http://www.w3.org/2000/svg">
			<path d="m115.374 155h-5.748c-27.364 0-49.626 22.262-49.626 49.626v10.374h30v-10.374c0-10.822 8.804-19.626 19.626-19.626h5.748c10.822 0 19.626 8.804 19.626 19.626 0 7.123-3.868 13.696-10.096 17.156l-34.904 19.392v48.826h30v-31.174l19.475-10.819c15.744-8.747 25.525-25.37 25.525-43.381 0-27.364-22.262-49.626-49.626-49.626z" fill="#8ac4d0" data-original="#000000" style="" class=""/>
			<path d="m90 320h30v30h-30z" fill="#7cbd56" data-original="#000000" style="" class=""/>
			<path d="m458.934 100h-407.868c-28.158 0-51.066 22.908-51.066 51.066v207.867c0 28.159 22.908 51.067 51.066 51.067h407.867c28.159 0 51.067-22.908 51.067-51.066v-207.868c0-28.158-22.908-51.066-51.066-51.066zm-428.934 258.934v-207.868c0-11.616 9.45-21.066 21.066-21.066h143.934v250h-143.934c-11.616 0-21.066-9.45-21.066-21.066zm450 0c0 11.616-9.45 21.066-21.066 21.066h-233.934v-250h233.934c11.616 0 21.066 9.45 21.066 21.066z" fill="#8ac4d0" data-original="#000000" style="" class=""/>
			<path d="m255 180h195v30h-195z" fill="#8ac4d0" data-original="#000000" style="" class=""/>
			<path d="m255 240h135v30h-135z" fill="#8ac4d0" data-original="#000000" style="" class=""/>
			<path d="m255 300h90v30h-90z" fill="#8ac4d0" data-original="#000000" style="" class=""/>
		</g>
	</g>
</svg>
