<svg xmlns="http://www.w3.org/2000/svg" xmlns:xlink="http://www.w3.org/1999/xlink" xmlns:svgjs="http://svgjs.com/svgjs" width="30px" height="30px" x="0" y="0" viewBox="0 0 490 490"><g>
<g xmlns="http://www.w3.org/2000/svg">
	<path d="M237.718,364.076H123.541c-6.862-27.135-31.516-47.283-60.81-47.283C28.143,316.792,0,344.875,0,379.388   s28.143,62.596,62.73,62.596c29.295,0,53.949-20.148,60.81-47.283h242.919c6.862,27.135,31.516,47.283,60.81,47.283   c34.588,0,62.73-28.083,62.73-62.596s-28.143-62.596-62.73-62.596c-29.295,0-53.948,20.148-60.81,47.283h-98.117V262.227h98.119   c6.865,27.125,31.517,47.268,60.808,47.268c34.588,0,62.73-28.083,62.73-62.588c0-34.513-28.143-62.596-62.73-62.596   c-29.295,0-53.948,20.148-60.81,47.283h-98.117v-105.67h98.117c6.862,27.133,31.516,47.276,60.81,47.276   c34.588,0,62.73-28.075,62.73-62.588s-28.143-62.596-62.73-62.596c-29.295,0-53.948,20.148-60.81,47.283H123.541   c-6.862-27.135-31.516-47.283-60.81-47.283C28.143,48.016,0,76.099,0,110.612S28.143,173.2,62.73,173.2   c29.295,0,53.948-20.143,60.81-47.276h114.177v105.67H123.541c-6.862-27.135-31.516-47.283-60.81-47.283   C28.143,184.311,0,212.394,0,246.907c0,34.505,28.143,62.588,62.73,62.588c29.291,0,53.943-20.143,60.808-47.268h114.179V364.076z    M62.73,411.359c-17.705,0-32.105-14.34-32.105-31.971c0-17.63,14.4-31.971,32.105-31.971c17.69,0,32.09,14.341,32.09,31.971   C94.821,397.018,80.421,411.359,62.73,411.359z M427.27,347.417c17.705,0,32.105,14.341,32.105,31.971   c0,17.63-14.4,31.971-32.105,31.971c-17.69,0-32.09-14.34-32.09-31.971C395.179,361.758,409.58,347.417,427.27,347.417z    M427.27,214.936c17.705,0,32.105,14.34,32.105,31.971c0,17.623-14.4,31.963-32.105,31.963c-17.69,0-32.09-14.341-32.09-31.963   C395.179,229.276,409.58,214.936,427.27,214.936z M62.73,142.575c-17.705,0-32.105-14.34-32.105-31.963   c0-17.63,14.4-31.971,32.105-31.971c17.69,0,32.09,14.34,32.09,31.971C94.821,128.235,80.421,142.575,62.73,142.575z    M427.27,78.641c17.705,0,32.105,14.34,32.105,31.971c0,17.623-14.4,31.963-32.105,31.963c-17.69,0-32.09-14.34-32.09-31.963   C395.179,92.982,409.58,78.641,427.27,78.641z M62.73,278.87c-17.705,0-32.105-14.341-32.105-31.963   c0-17.63,14.4-31.971,32.105-31.971c17.69,0,32.09,14.34,32.09,31.971C94.821,264.529,80.421,278.87,62.73,278.87z" fill="#8ac4d0" data-original="#000000" style="" class=""/>
</g>
</g></svg>
